<?xml version="1.0" encoding="UTF-8" standalone="no"?>
<!-- Created with Inkscape (http://www.inkscape.org/) -->
<svg
   xmlns:dc="http://purl.org/dc/elements/1.1/"
   xmlns:cc="http://web.resource.org/cc/"
   xmlns:rdf="http://www.w3.org/1999/02/22-rdf-syntax-ns#"
   xmlns:svg="http://www.w3.org/2000/svg"
   xmlns="http://www.w3.org/2000/svg"
   xmlns:sodipodi="http://sodipodi.sourceforge.net/DTD/sodipodi-0.dtd"
   xmlns:inkscape="http://www.inkscape.org/namespaces/inkscape"
   width="580.69153"
   height="419.63608"
   id="svg2"
   sodipodi:version="0.32"
   inkscape:version="0.45.1"
   version="1.0"
   sodipodi:docbase="C:\Documents and Settings\Brane\Desktop"
   sodipodi:docname="broken_cigarette.svg"
   inkscape:output_extension="org.inkscape.output.svg.inkscape">
  <defs
     id="defs4" />
  <sodipodi:namedview
     id="base"
     pagecolor="#ffffff"
     bordercolor="#666666"
     borderopacity="1.0"
     gridtolerance="10000"
     guidetolerance="10"
     objecttolerance="10"
     inkscape:pageopacity="0.0"
     inkscape:pageshadow="2"
     inkscape:zoom="0.7"
     inkscape:cx="442.45609"
     inkscape:cy="212.49907"
     inkscape:document-units="px"
     inkscape:current-layer="layer1"
     inkscape:window-width="1024"
     inkscape:window-height="719"
     inkscape:window-x="-4"
     inkscape:window-y="-4" />
  <metadata
     id="metadata7">
    <rdf:RDF>
      <cc:Work
         rdf:about="">
        <dc:format>image/svg+xml</dc:format>
        <dc:type
           rdf:resource="http://purl.org/dc/dcmitype/StillImage" />
      </cc:Work>
    </rdf:RDF>
  </metadata>
  <g
     inkscape:label="Layer 1"
     inkscape:groupmode="layer"
     id="layer1"
     transform="translate(-69.019427,-176.43009)">
    <path
       style="fill:#000000"
       d="M 482.26913,480.76313 L 367.28028,365.48803 L 365.96363,360.01313 C 364.66009,354.5927 363.32584,334.03823 364.27753,334.03823 C 364.54914,334.03823 366.57396,334.97779 368.77713,336.12614 C 372.53593,338.08533 384.83293,350.76498 384.83293,352.68152 C 384.83293,353.16311 385.79823,354.15994 386.97793,354.8967 C 388.83543,356.05672 389.04433,356.03147 388.53653,354.70826 C 387.02263,350.7631 386.66743,345.26645 387.40903,337.26244 C 387.85363,332.46413 388.38523,329.53537 388.59023,330.7541 C 388.79533,331.97282 390.17133,334.01354 391.64803,335.28903 C 396.15633,339.18299 403.83293,351.52006 403.83293,354.87126 C 403.83293,355.43819 405.18293,356.86333 406.83293,358.03823 C 408.48293,359.21313 409.83683,359.80628 409.84153,359.35632 C 409.84623,358.90637 408.75003,353.58823 407.40543,347.53823 C 403.69243,330.83128 401.82413,319.64468 402.61823,318.87428 C 403.01133,318.49294 405.58293,318.64003 408.33293,319.20114 C 413.36323,320.22752 414.01683,320.34523 421.33293,321.54251 C 423.53293,321.90254 426.23293,322.8012 427.33293,323.53954 C 430.29753,325.52941 504.35383,399.18587 581.67603,477.04924 L 649.71093,545.56024 L 625.02193,570.82717 C 611.44303,584.72398 599.64113,596.08153 598.79553,596.06616 C 597.94993,596.0508 545.51303,544.16443 482.26913,480.76313 z M 161.83296,553.00929 C 146.15796,539.84256 133.36942,528.72518 133.41399,528.304 C 133.58159,526.72004 144.38824,514.17511 145.6428,514.10815 C 146.36322,514.06969 158.06322,523.38427 171.6428,534.8072 C 185.22239,546.23014 198.02045,556.91764 200.08293,558.5572 C 202.14541,560.19677 203.83291,561.79223 203.83293,562.10267 C 203.83298,563.03377 191.79326,577.04187 191.03451,576.99352 C 190.64866,576.96893 177.50796,566.17603 161.83296,553.00929 z M 183.18828,534.28823 C 168.8913,522.32573 155.72547,511.29855 153.93087,509.78338 L 150.66797,507.02852 L 155.86658,500.78338 C 158.72581,497.34855 161.44266,494.39499 161.90402,494.21991 C 162.77851,493.88807 219.07857,540.63202 219.67089,542.1817 C 219.92673,542.85105 210.08847,556.03823 209.33327,556.03823 C 209.25051,556.03823 197.48527,546.25073 183.18828,534.28823 z M 197.83296,513.39268 C 183.25796,501.03301 170.46285,490.2843 169.39939,489.50666 C 166.94852,487.71451 167.84421,485.88115 175.21395,477.60486 L 180.4974,471.67149 L 208.91518,495.48244 C 224.54496,508.57847 237.46537,519.84304 237.62721,520.51484 C 237.97388,521.95389 226.79465,535.93916 225.33296,535.89501 C 224.78296,535.87839 212.40796,525.75234 197.83296,513.39268 z M 241.40511,510.15497 C 241.06723,509.60827 229.10027,499.397 214.81187,487.46327 C 200.52347,475.52953 188.83296,465.37482 188.83296,464.89723 C 188.83296,464.14148 291.64442,340.00687 295.55727,336.03823 C 296.86442,334.71245 296.96778,335.11897 296.44717,339.53823 C 296.12321,342.28823 295.55686,348.09668 295.18863,352.4459 L 294.51911,360.35357 L 296.92603,359.66329 C 298.24984,359.28365 303.38296,357.88301 308.33296,356.55078 C 313.28296,355.21855 321.34784,352.7606 326.25491,351.08867 C 331.16199,349.41674 335.2988,348.17074 335.44784,348.31977 C 335.59687,348.46881 334.81946,350.01118 333.72026,351.74725 C 332.51188,353.65575 330.55756,355.15944 328.77733,355.55045 C 327.15793,355.90613 325.83296,356.61139 325.83296,357.11769 C 325.83296,357.62398 325.23846,358.03823 324.51185,358.03823 C 323.78524,358.03823 320.29774,360.88229 316.76185,364.35837 C 313.22596,367.83444 309.43296,371.19576 308.33296,371.82796 C 304.10874,374.25573 325.59898,372.98737 332.33296,370.41148 C 333.43296,369.9907 330.57784,373.44709 325.98824,378.09233 C 319.1214,385.04243 313.83296,392.71493 313.83296,395.7273 C 313.83296,396.88274 332.58513,394.67172 337.69447,392.91385 C 340.70112,391.87941 343.30479,391.17673 343.4804,391.35234 C 344.0893,391.96124 244.77307,510.53976 243.3997,510.8436 C 242.64055,511.01155 241.74299,510.70167 241.40511,510.15497 z M 142.33296,497.71215 C 127.0654,491.73784 100.86498,470.17254 87.785339,452.81454 C 80.873469,443.6418 73.753679,429.42984 71.365329,420.03823 C 69.056759,410.96032 68.318289,394.98449 69.753529,385.16888 C 71.299389,374.59666 76.533779,358.1703 82.905499,343.89588 C 99.661129,306.35863 101.92659,297.32872 101.06158,271.52742 C 100.76709,262.74334 101.03396,255.38699 101.77697,251.80794 C 104.49686,238.70632 113.93646,226.18669 128.73948,216.0479 C 140.38754,208.06999 149.23525,198.64444 156.14813,186.84921 C 159.27129,181.52025 162.26485,176.88934 162.80047,176.55831 C 165.85649,174.66959 165.97521,194.07806 162.98281,206.36719 C 158.04213,226.65745 160.85375,235.20005 182.38995,265.33218 C 195.87483,284.19939 203.74779,299.34152 207.45409,313.53823 C 210.92356,326.82778 211.17958,345.54571 208.05022,357.12123 C 204.56187,370.02465 201.34618,375.76493 183.70315,400.58279 C 168.93303,421.35945 163.25366,431.28474 158.96556,443.81435 C 155.16059,454.93229 154.28641,462.81212 155.64264,473.76733 C 156.30793,479.14132 156.83539,484.66323 156.81479,486.03823 C 156.77185,488.90296 151.80521,495.92554 148.53745,497.74196 C 145.92316,499.19515 146.1253,499.19612 142.33296,497.71215 z M 140.81765,451.77078 C 140.85319,431.42306 147.4171,413.85828 162.39214,394.03823 C 183.68667,365.85411 189.81355,353.45025 189.80631,338.53823 C 189.7986,322.65866 184.18765,310.77197 161.56331,278.70592 C 154.96768,269.35777 147.78245,255.74434 146.30041,249.78823 C 144.31218,241.79776 142.26491,251.98428 143.1505,265.4611 C 143.9614,277.80117 147.11194,296.87174 150.92785,312.53823 C 154.9517,329.05841 155.90155,344.30493 153.37989,351.89695 C 152.44523,354.71092 148.27604,362.30638 144.115,368.77574 C 130.70934,389.61818 127.31123,399.14731 127.4394,415.53823 C 127.5432,428.81159 130.95152,443.93906 137.08586,458.35295 C 139.79899,464.72801 140.79809,462.96577 140.81765,451.77078 z M 115.4446,446.2373 C 108.28143,431.96492 105.36899,412.02184 108.23288,396.85474 C 110.1768,386.55981 112.83236,379.23367 120.38328,363.33434 C 131.08957,340.791 131.11736,340.70358 131.60431,328.03823 C 132.03364,316.87161 131.86856,315.35328 127.27126,288.18605 C 126.95926,286.34235 126.49507,285.04278 126.23973,285.29813 C 125.98438,285.55347 125.12643,290.08595 124.33317,295.37029 C 121.26511,315.80828 117.91501,324.85561 103.91556,350.51053 C 100.62249,356.5453 96.250039,366.4453 94.198999,372.51053 C 90.719689,382.79938 90.468829,384.34223 90.454699,395.53823 C 90.433839,412.06897 94.273109,425.04268 102.93911,437.72568 C 107.28211,444.08182 116.86937,454.13376 117.95106,453.46524 C 118.42172,453.17436 117.29381,449.92178 115.4446,446.2373 z "
       id="path2170" />
  </g>
</svg>
